<?xml version="1.0" encoding="UTF-8"?>
<svg id="_图层_1" data-name=" 图层 1" xmlns="http://www.w3.org/2000/svg" viewBox="0 0 16 16">
  <defs>
    <style>
      .cls-1 {
        fill: #e0e0e0;
      }
    </style>
  </defs>
  <path class="cls-1" d="M9.78,0c.49,0,.89.4.89.89v3.56c0,.49-.4.89-.89.89h-.89v1.78h7.11v1.78h-2.67v1.78h.89c.49,0,.89.4.89.89v3.56c0,.49-.4.89-.89.89h-3.56c-.49,0-.89-.4-.89-.89v-3.56c0-.49.4-.89.89-.89h.89v-1.78h-7.11v1.78h.89c.49,0,.89.4.89.89v3.56c0,.49-.4.89-.89.89H1.78c-.49,0-.89-.4-.89-.89v-3.65c.05-.45.43-.8.89-.8h.89v-1.78H0v-1.78h7.11v-1.78h-.89c-.49,0-.89-.4-.89-.89V.89c0-.49.4-.89.89-.89h3.56Z"/>
</svg>