<svg xmlns="http://www.w3.org/2000/svg" width="16" height="16" viewBox="0 0 4.2333 4.2333">
  <path stroke="none" stroke-width=".26458" d="m2.5876-0.0052916c0.12965 0 0.23548 0.10583 0.23548 0.23548v0.94192c0 0.12965-0.10583 0.23548-0.23548 0.23548h-0.23548v0.47096h1.8812v0.47096h-0.70644v0.47096h0.23548c0.12965 0 0.23548 0.10583 0.23548 0.23548v0.94192c0 0.12965-0.10583 0.23548-0.23548 0.23548h-0.94192c-0.12965 0-0.23548-0.10583-0.23548-0.23548v-0.94192c0-0.12965 0.10583-0.23548 0.23548-0.23548h0.23548v-0.47096h-1.8812v0.47096h0.23548c0.12965 0 0.23548 0.10583 0.23548 0.23548v0.94192c0 0.12965-0.10583 0.23548-0.23548 0.23548h-0.93927c-0.12965 0-0.23548-0.10583-0.23548-0.23548v-0.96573c0.013229-0.11906 0.11377-0.21167 0.23548-0.21167h0.23548v-0.47096h-0.70644v-0.47096h1.8812v-0.47096h-0.23548c-0.12965 0-0.23548-0.10583-0.23548-0.23548v-0.94192c0-0.12965 0.10583-0.23548 0.23548-0.23548z" fill="#e0e0e0" />
</svg>
