<svg xmlns="http://www.w3.org/2000/svg" width="16" height="16" viewBox="0 0 4.2333 4.2333">
  <g transform="scale(.26458)">
    <polygon points="12.39 14.42 10.82 16 9.58 14.76 11.15 13.18 9.58 11.61 10.82 10.36 12.39 11.94 13.97 10.36 15.21 11.61 13.64 13.18 15.21 14.76 13.97 16" fill="#ff5f5f" />
    <path d="m9.76 0c.49 0 .88.39.88.88v3.52c0 .49-.39.88-.88.88h-.88v1.76h7.03v1.76h-2.64v1.32h-1.76v-1.32h-7.03v1.76h.88c.49 0 .88.39.88.88v3.52c0 .49-.39.88-.88.88h-3.51c-.49 0-.88-.39-.88-.88v-3.61c.05-.44.42-.79.88-.79h.88v-1.76h-2.64v-1.76h7.03v-1.76h-.88c-.49 0-.88-.39-.88-.88v-3.52c0-.49.39-.88.88-.88z" fill="#e0e0e0" />
  </g>
</svg>
