<?xml version="1.0" encoding="UTF-8"?>
<svg id="_图层_1" data-name=" 图层 1" xmlns="http://www.w3.org/2000/svg" viewBox="0 0 16 16">
  <defs>
    <style>
      .cls-1 {
        fill: #ff5f5f;
      }

      .cls-2 {
        fill: #e0e0e0;
      }
    </style>
  </defs>
  <polygon class="cls-1" points="15.21 11.61 13.64 13.18 15.21 14.76 13.97 16 12.39 14.42 10.82 16 9.58 14.76 11.15 13.18 9.58 11.61 10.82 10.36 12.39 11.94 13.97 10.36 15.21 11.61"/>
  <path class="cls-2" d="M9.76,0c.49,0,.88.39.88.88v3.52c0,.49-.39.88-.88.88h-.88v1.76h7.03v1.76h-2.64v1.32h-1.76v-1.32h-7.03v1.76h.88c.49,0,.88.39.88.88v3.52c0,.49-.39.88-.88.88H1.85c-.49,0-.88-.39-.88-.88v-3.61c.05-.44.42-.79.88-.79h.88v-1.76H.09v-1.76h7.03v-1.76h-.88c-.49,0-.88-.39-.88-.88V.88c0-.49.39-.88.88-.88h3.52Z"/>
</svg>