<?xml version="1.0" encoding="UTF-8"?>
<svg id="_图层_1" data-name=" 图层 1" xmlns="http://www.w3.org/2000/svg" viewBox="0 0 16 16">
  <defs>
    <style>
      .cls-1 {
        fill: #e0e0e0;
      }
    </style>
  </defs>
  <path class="cls-1" d="M0,8c0,4.42,3.58,8,8,8s8-3.58,8-8S12.42,0,8,0,0,3.58,0,8ZM14.4,8c0,3.53-2.87,6.4-6.4,6.4S1.6,11.53,1.6,8,4.47,1.6,8,1.6s6.4,2.87,6.4,6.4ZM12.8,8c0,2.65-2.15,4.8-4.8,4.8s-4.8-2.15-4.8-4.8c0-1.33.54-2.53,1.41-3.39l3.39,3.39V3.2c2.65,0,4.8,2.15,4.8,4.8Z"/>
</svg>