<?xml version="1.0" encoding="UTF-8"?>
<svg id="_图层_1" data-name=" 图层 1" xmlns="http://www.w3.org/2000/svg" viewBox="0 0 16 16">
  <defs>
    <style>
      .cls-1 {
        fill: #e0e0e0;
      }
    </style>
  </defs>
  <path class="cls-1" d="M16,14.82l-1.18,1.18-.6-.6c-.12.06-.25.1-.39.1h-3.33c-.46,0-.83-.37-.83-.83v-3.33c0-.14.04-.27.1-.39l-2.11-2.11h-2.99v1.67h.83c.46,0,.83.37.83.83v3.33c0,.46-.37.83-.83.83h-3.33c-.46,0-.83-.37-.83-.83v-3.42c.05-.42.4-.75.83-.75h.83v-1.67H.51v-1.67h5.48L0,1.18,1.18,0l14.82,14.82ZM15.5,8.83h-2.5v.63l-2.3-2.3h4.79v1.67ZM9.67.51c.46,0,.83.37.83.83v3.33c0,.46-.37.83-.83.83h-.63l-3.53-3.53v-.63c0-.46.37-.83.83-.83h3.33Z"/>
</svg>