<svg xmlns="http://www.w3.org/2000/svg" width="16" height="16" viewBox="0 0 4.2333 4.2333">
  <g transform="scale(.26458)" stroke-width="1.0016">
    <path d="m16 14.82-1.18 1.18-0.6-0.6c-0.12 0.06-0.25 0.1-0.39 0.1h-3.33c-0.46 0-0.83-0.37-0.83-0.83v-3.33c0-0.14 0.04-0.27 0.1-0.39l-2.11-2.11h-2.99v1.67h0.83c0.46 0 0.83 0.37 0.83 0.83v3.33c0 0.46-0.37 0.83-0.83 0.83h-3.33c-0.46 0-0.83-0.37-0.83-0.83v-3.42c0.05-0.42 0.4-0.75 0.83-0.75h0.83v-1.67h-2.49v-1.67h5.48l-5.99-5.98 1.18-1.18zm-0.5-5.99h-2.5v0.63l-2.3-2.3h4.79v1.67zm-5.83-8.32c0.46 0 0.83 0.37 0.83 0.83v3.33c0 0.46-0.37 0.83-0.83 0.83h-0.63l-3.53-3.53v-0.63c0-0.46 0.37-0.83 0.83-0.83z" fill="#e0e0e0" stroke-width="1.0016" />
  </g>
  <path d="m18.467 3.9211-0.31221 0.31221-0.15875-0.15875c-0.03175 0.015875-0.06615 0.026458-0.10319 0.026458h-0.88106c-0.12171 0-0.2196-0.097896-0.2196-0.2196v-0.88106c0-0.037042 0.01058-0.071438 0.02646-0.10319l-0.55827-0.55827h-0.7911v0.44185h0.2196c0.12171 0 0.2196 0.097896 0.2196 0.2196v0.88106c0 0.12171-0.0979 0.2196-0.2196 0.2196h-0.88106c-0.12171 0-0.2196-0.097896-0.2196-0.2196v-0.90488c0.01323-0.11112 0.10583-0.19844 0.2196-0.19844h0.2196v-0.44185h-0.65881v-0.44185h1.4499l-1.5849-1.5822 0.31221-0.31221zm-0.13229-1.5849h-0.66146v0.16669l-0.60854-0.60854h1.2674v0.44185zm-1.5425-2.2013c0.12171 0 0.2196 0.097896 0.2196 0.2196v0.88106c0 0.12171-0.0979 0.2196-0.2196 0.2196h-0.16669l-0.93398-0.93398v-0.16669c0-0.12171 0.0979-0.2196 0.2196-0.2196z" stroke-width=".26458" />
</svg>
