<?xml version="1.0" encoding="UTF-8"?>
<svg width="16" height="16" version="1.1" viewBox="0 0 4.2333 4.2333" xml:space="preserve" xmlns="http://www.w3.org/2000/svg"><g transform="matrix(.21167 0 0 .21167 -.42333 -.3175)" fill="#e0e0e0"><path d="m13 8v8c0 1.6569-1.3431 3-3 3h-2.1707c-0.41183 1.1652-1.5231 2-2.8293 2-1.6568 0-3-1.3431-3-3s1.3432-3 3-3c1.3062 0 2.4175 0.8348 2.8293 2h2.1707c0.5523 0 1-0.4477 1-1v-8c0-1.6568 1.3431-3 3-3h3v-3l5 4-5 4v-3h-3c-0.5523 0-1 0.44772-1 1z" fill="#e0e0e0"/></g></svg>
