<svg xmlns="http://www.w3.org/2000/svg" viewBox="0 0 256 256">
  <path d="M217.98,85.66l-2.89,6.59c-2.09,4.82-8.84,4.82-10.93,0l-2.89-6.59c-5.14-11.74-14.31-21.06-25.88-26.2l-8.84-3.86c-4.82-2.09-4.82-9.16,0-11.25l8.36-3.7c11.73-5.3,21.22-14.95,26.2-27.17l2.89-7.07c2.09-4.98,8.84-4.98,10.93,0l2.89,7.07c4.98,12.22,14.47,21.86,26.2,27.17l8.36,3.7c4.82,2.09,4.82,9.16,0,11.25l-8.84,3.86c-11.57,5.14-20.74,14.47-25.88,26.2h.32Z" fill="#699ce8" />
  <path d="M209.62,119.26c8.2,0,15.91-1.45,23.15-4.02v4.02c0,51.44-41.8,93.24-93.24,93.24v40.83C81.5,229.86,0,194.97,0,119.26,0,67.66,41.64,26.02,93.24,26.02h50.64c-2.57,7.23-4.02,15.11-4.02,23.15,0,38.58,31.35,69.93,69.93,69.93l-.16.16Z" fill="#e0e0e0" />
</svg>
