<svg xmlns="http://www.w3.org/2000/svg" viewBox="0 0 16 16">
  <path d="M13.59,5.37l-.18.41c-.13.3-.55.3-.68,0l-.18-.41c-.32-.73-.89-1.31-1.61-1.63l-.55-.24c-.3-.13-.3-.57,0-.7l.52-.23c.73-.33,1.32-.93,1.63-1.69l.18-.44c.13-.31.55-.31.68,0l.18.44c.31.76.9,1.36,1.63,1.69l.52.23c.3.13.3.57,0,.7l-.55.24c-.72.32-1.29.9-1.61,1.63ZM13.07,7.46c.51,0,.99-.09,1.44-.25,0,.08,0,.16,0,.25,0,3.2-2.6,5.8-5.8,5.8v2.54C5.1,14.34.03,12.17.03,7.46.03,4.25,2.62,1.66,5.83,1.66h2.9c.08,0,.16,0,.25,0-.16.45-.25.94-.25,1.44,0,2.4,1.95,4.35,4.35,4.35Z" fill="#e0e0e0" />
</svg>
