<?xml version="1.0" encoding="UTF-8"?>
<svg id="_图层_1" data-name=" 图层 1" xmlns="http://www.w3.org/2000/svg" viewBox="0 0 16 16">
  <defs>
    <style>
      .cls-1 {
        fill: #e0e0e0;
        fill-rule: evenodd;
      }
    </style>
  </defs>
  <path class="cls-1" d="M14.56,7.87l-.05.05-5.8,5.69c-.07.07-.07.19,0,.26,0,0,0,0,0,0h0s1.19,1.17,1.19,1.17c.22.21.22.56.01.78h0c-.22.23-.58.23-.8,0l-1.19-1.17c-.51-.49-.52-1.3-.03-1.81,0,0,.02-.02.03-.03l5.8-5.69c.65-.63.66-1.68.03-2.33l-.03-.03-.03-.03c-.67-.65-1.73-.65-2.4,0l-4.78,4.69h0l-.06.06c-.22.22-.58.22-.8,0-.22-.21-.22-.56,0-.78h0s4.85-4.77,4.85-4.77c.65-.64.66-1.68.03-2.33l-.03-.03c-.67-.65-1.74-.65-2.41,0L1.64,7.9c-.22.22-.58.22-.8,0-.22-.21-.22-.56-.01-.78h.01S7.25.81,7.25.81c1.12-1.09,2.89-1.09,4.01,0,.63.61.93,1.49.8,2.36.88-.12,1.77.17,2.41.79l.03.03c1.09,1.06,1.11,2.79.05,3.88,0,0,0,0,0,0M12.86,6.32c.22-.21.22-.56,0-.78h0c-.22-.23-.58-.23-.8,0l-4.75,4.65c-.67.65-1.74.65-2.41,0-.65-.63-.67-1.68-.03-2.33.01-.01.02-.02.03-.03l4.75-4.65c.22-.21.22-.56.01-.78h-.01c-.22-.23-.58-.23-.8,0l-4.74,4.65c-1.09,1.06-1.11,2.79-.05,3.88.02.02.04.04.05.05,1.12,1.09,2.89,1.09,4.01,0l4.75-4.65Z"/>
</svg>