<?xml version="1.0" encoding="UTF-8"?>
<svg id="_图层_1" data-name="图层 1" xmlns="http://www.w3.org/2000/svg" viewBox="0 0 16 16">
  <defs>
    <style>
      .cls-1 {
        fill: #e0e0e0;
      }
    </style>
  </defs>
  <polygon class="cls-1" points="14.56 2 12.32 2.33 13.14 4.23 14.85 3.98 14.56 2 14.56 2"/>
  <polygon class="cls-1" points="10.34 2.62 8.36 2.9 9.18 4.81 11.16 4.52 10.34 2.62"/>
  <polygon class="cls-1" points="6.38 3.19 4.4 3.48 5.22 5.38 7.2 5.1 6.38 3.19"/>
  <polygon class="cls-1" points="2.43 3.77 .71 4.02 1 6 3.24 5.67 2.43 3.77 2.43 3.77"/>
  <path class="cls-1" d="M1,7v6c0,1.1.9,2,2,2h12V7H1ZM6.38,14.32h-1.57v-1.57l3.65-3.65,1.57,1.57-3.65,3.65ZM11.34,9.36l-.78.78-1.57-1.57.78-.78c.14-.14.38-.14.52,0l1.04,1.04c.14.14.14.38,0,.52Z"/>
</svg>