<?xml version="1.0" encoding="UTF-8"?>
<svg id="_图层_1" data-name="图层 1" xmlns="http://www.w3.org/2000/svg" viewBox="0 0 16 16">
  <defs>
    <style>
      .cls-1 {
        fill: #e0e0e0;
      }
    </style>
  </defs>
  <path class="cls-1" d="M13.45.73c.43,0,.87.11,1.27.34,1.22.7,1.63,2.26.93,3.48l-5.45,9.45c-.7,1.22-2.26,1.63-3.48.93-.61-.35-1.02-.92-1.19-1.54l-1.09-4.07,6.38-3.68c.35-.2.47-.65.27-.99-.2-.35-.65-.47-.99-.27l-6.38,3.68L.75,5.08C-.25,4.08-.25,2.47.75,1.48c.46-.46,1.1-.75,1.8-.75h10.91Z"/>
</svg>