<?xml version="1.0" encoding="UTF-8"?>
<svg id="_图层_1" data-name=" 图层 1" xmlns="http://www.w3.org/2000/svg" viewBox="0 0 16 16">
  <defs>
    <style>
      .cls-1 {
        fill: #e0e0e0;
      }
    </style>
  </defs>
  <path class="cls-1" d="M.11,9.3c-.15-.88-.14-1.76,0-2.61.88.02,1.67-.4,1.98-1.14.31-.74.05-1.6-.59-2.21.5-.7,1.12-1.33,1.84-1.84.61.64,1.47.9,2.21.59.74-.31,1.17-1.1,1.14-1.98.88-.15,1.76-.14,2.61,0-.02.88.4,1.67,1.14,1.98.74.31,1.6.05,2.21-.59.7.5,1.33,1.12,1.84,1.84-.64.61-.9,1.47-.59,2.21.31.74,1.1,1.17,1.98,1.14.15.88.14,1.76,0,2.61-.88-.02-1.67.4-1.98,1.14-.31.74-.05,1.6.59,2.21-.5.7-1.12,1.33-1.84,1.84-.61-.64-1.47-.9-2.21-.59-.74.31-1.17,1.1-1.14,1.98-.88.15-1.76.14-2.61,0,.02-.88-.4-1.67-1.14-1.98-.74-.31-1.6-.05-2.21.59-.7-.5-1.33-1.12-1.84-1.84.64-.61.9-1.47.59-2.21-.31-.74-1.1-1.17-1.98-1.14ZM8,10.4c1.33,0,2.4-1.07,2.4-2.4s-1.07-2.4-2.4-2.4-2.4,1.07-2.4,2.4,1.07,2.4,2.4,2.4Z"/>
</svg>